{
  "accessors": [
    {
      "bufferView": 2,
      "componentType": 5126,
      "count": 1770,
      "max": [
        2.373383045196533,
        1.5246360301971436,
        1.5635780096054077
      ],
      "min": [
        1.5480350255966187,
        0.8800140023231506,
        0.8126410245895386
      ],
      "type": "VEC3"
    },
    {
      "bufferView": 2,
      "byteOffset": 21240,
      "componentType": 5126,
      "count": 1770,
      "type": "VEC3"
    },
    {
      "bufferView": 1,
      "componentType": 5126,
      "count": 1770,
      "type": "VEC2"
    },
    {
      "bufferView": 0,
      "componentType": 5125,
      "count": 3096,
      "type": "SCALAR"
    },
    {
      "bufferView": 2,
      "byteOffset": 42480,
      "componentType": 5126,
      "count": 96,
      "max": [
        6.009243965148926,
        1.9161399602890015,
        0.8036519885063171
      ],
      "min": [
        -6.268126010894775,
        -1.9161399602890015,
        -0.06318999826908112
      ],
      "type": "VEC3"
    },
    {
      "bufferView": 2,
      "byteOffset": 43632,
      "componentType": 5126,
      "count": 96,
      "type": "VEC3"
    },
    {
      "bufferView": 1,
      "byteOffset": 14160,
      "componentType": 5126,
      "count": 96,
      "type": "VEC2"
    },
    {
      "bufferView": 0,
      "byteOffset": 12384,
      "componentType": 5125,
      "count": 144,
      "type": "SCALAR"
    },
    {
      "bufferView": 2,
      "byteOffset": 44784,
      "componentType": 5126,
      "count": 48,
      "max": [
        -6.08823299407959,
        1.9090169668197632,
        0.5196999907493591
      ],
      "min": [
        -6.239675998687744,
        -1.9090169668197632,
        0.20719100534915924
      ],
      "type": "VEC3"
    },
    {
      "bufferView": 2,
      "byteOffset": 45360,
      "componentType": 5126,
      "count": 48,
      "type": "VEC3"
    },
    {
      "bufferView": 1,
      "byteOffset": 14928,
      "componentType": 5126,
      "count": 48,
      "type": "VEC2"
    },
    {
      "bufferView": 0,
      "byteOffset": 12960,
      "componentType": 5125,
      "count": 72,
      "type": "SCALAR"
    },
    {
      "bufferView": 2,
      "byteOffset": 45936,
      "componentType": 5126,
      "count": 58,
      "max": [
        -5.994452953338623,
        1.8925069570541382,
        0.9679999947547913
      ],
      "min": [
        -6.229175090789795,
        -1.8925069570541382,
        0.7543749809265137
      ],
      "type": "VEC3"
    },
    {
      "bufferView": 2,
      "byteOffset": 46632,
      "componentType": 5126,
      "count": 58,
      "type": "VEC3"
    },
    {
      "bufferView": 1,
      "byteOffset": 15312,
      "componentType": 5126,
      "count": 58,
      "type": "VEC2"
    },
    {
      "bufferView": 0,
      "byteOffset": 13248,
      "componentType": 5125,
      "count": 90,
      "type": "SCALAR"
    },
    {
      "bufferView": 2,
      "byteOffset": 47328,
      "componentType": 5126,
      "count": 249,
      "max": [
        6.225152969360352,
        1.9132380485534668,
        0.4390240013599396
      ],
      "min": [
        -6.290040969848633,
        -1.9132380485534668,
        -0.47820401191711426
      ],
      "type": "VEC3"
    },
    {
      "bufferView": 2,
      "byteOffset": 50316,
      "componentType": 5126,
      "count": 249,
      "type": "VEC3"
    },
    {
      "bufferView": 1,
      "byteOffset": 15776,
      "componentType": 5126,
      "count": 249,
      "type": "VEC2"
    },
    {
      "bufferView": 0,
      "byteOffset": 13608,
      "componentType": 5125,
      "count": 387,
      "type": "SCALAR"
    },
    {
      "bufferView": 2,
      "byteOffset": 53304,
      "componentType": 5126,
      "count": 68,
      "max": [
        6.12560510635376,
        0.6401370167732239,
        0.44157299399375916
      ],
      "min": [
        -6.125039100646973,
        -0.6401370167732239,
        -0.5040779709815979
      ],
      "type": "VEC3"
    },
    {
      "bufferView": 2,
      "byteOffset": 54120,
      "componentType": 5126,
      "count": 68,
      "type": "VEC3"
    },
    {
      "bufferView": 1,
      "byteOffset": 17768,
      "componentType": 5126,
      "count": 68,
      "type": "VEC2"
    },
    {
      "bufferView": 0,
      "byteOffset": 15156,
      "componentType": 5125,
      "count": 114,
      "type": "SCALAR"
    },
    {
      "bufferView": 2,
      "byteOffset": 54936,
      "componentType": 5126,
      "count": 1241,
      "max": [
        5.868699073791504,
        2.2564640045166016,
        1.6599880456924438
      ],
      "min": [
        -5.758227825164795,
        -2.2564640045166016,
        -0.6242539882659912
      ],
      "type": "VEC3"
    },
    {
      "bufferView": 2,
      "byteOffset": 69828,
      "componentType": 5126,
      "count": 1241,
      "type": "VEC3"
    },
    {
      "bufferView": 1,
      "byteOffset": 18312,
      "componentType": 5126,
      "count": 1241,
      "type": "VEC2"
    },
    {
      "bufferView": 0,
      "byteOffset": 15612,
      "componentType": 5125,
      "count": 2004,
      "type": "SCALAR"
    },
    {
      "bufferView": 2,
      "byteOffset": 84720,
      "componentType": 5126,
      "count": 82,
      "max": [
        6.0092267990112305,
        1.8672330379486084,
        0.5380079746246338
      ],
      "min": [
        5.805556774139404,
        -1.8672330379486084,
        -0.05053900182247162
      ],
      "type": "VEC3"
    },
    {
      "bufferView": 2,
      "byteOffset": 85704,
      "componentType": 5126,
      "count": 82,
      "type": "VEC3"
    },
    {
      "bufferView": 1,
      "byteOffset": 28240,
      "componentType": 5126,
      "count": 82,
      "type": "VEC2"
    },
    {
      "bufferView": 0,
      "byteOffset": 23628,
      "componentType": 5125,
      "count": 126,
      "type": "SCALAR"
    },
    {
      "bufferView": 2,
      "byteOffset": 86688,
      "componentType": 5126,
      "count": 126,
      "max": [
        2.8427040576934814,
        1.923462986946106,
        2.230226993560791
      ],
      "min": [
        -5.580781936645508,
        -1.923462986946106,
        1.0960559844970703
      ],
      "type": "VEC3"
    },
    {
      "bufferView": 2,
      "byteOffset": 88200,
      "componentType": 5126,
      "count": 126,
      "type": "VEC3"
    },
    {
      "bufferView": 1,
      "byteOffset": 28896,
      "componentType": 5126,
      "count": 126,
      "type": "VEC2"
    },
    {
      "bufferView": 0,
      "byteOffset": 24132,
      "componentType": 5125,
      "count": 198,
      "type": "SCALAR"
    },
    {
      "bufferView": 2,
      "byteOffset": 89712,
      "componentType": 5126,
      "count": 3322,
      "max": [
        6.056888103485107,
        2.26173996925354,
        2.6260581016540527
      ],
      "min": [
        -6.172362804412842,
        -2.26173996925354,
        -0.6242539882659912
      ],
      "type": "VEC3"
    },
    {
      "bufferView": 2,
      "byteOffset": 129576,
      "componentType": 5126,
      "count": 3322,
      "type": "VEC3"
    },
    {
      "bufferView": 1,
      "byteOffset": 29904,
      "componentType": 5126,
      "count": 3322,
      "type": "VEC2"
    },
    {
      "bufferView": 0,
      "byteOffset": 24924,
      "componentType": 5125,
      "count": 5268,
      "type": "SCALAR"
    },
    {
      "bufferView": 2,
      "byteOffset": 169440,
      "componentType": 5126,
      "count": 44,
      "max": [
        1.962926983833313,
        2.4008989334106445,
        1.2484060525894165
      ],
      "min": [
        1.8925780057907104,
        -2.4008989334106445,
        1.0540419816970825
      ],
      "type": "VEC3"
    },
    {
      "bufferView": 2,
      "byteOffset": 169968,
      "componentType": 5126,
      "count": 44,
      "type": "VEC3"
    },
    {
      "bufferView": 1,
      "byteOffset": 56480,
      "componentType": 5126,
      "count": 44,
      "type": "VEC2"
    },
    {
      "bufferView": 0,
      "byteOffset": 45996,
      "componentType": 5125,
      "count": 72,
      "type": "SCALAR"
    },
    {
      "bufferView": 2,
      "byteOffset": 170496,
      "componentType": 5126,
      "count": 4482,
      "max": [
        6.142290115356445,
        2.4134669303894043,
        2.3261659145355225
      ],
      "min": [
        -6.290040969848633,
        -2.4134669303894043,
        -0.7733830213546753
      ],
      "type": "VEC3"
    },
    {
      "bufferView": 2,
      "byteOffset": 224280,
      "componentType": 5126,
      "count": 4482,
      "type": "VEC3"
    },
    {
      "bufferView": 1,
      "byteOffset": 56832,
      "componentType": 5126,
      "count": 4482,
      "type": "VEC2"
    },
    {
      "bufferView": 0,
      "byteOffset": 46284,
      "componentType": 5125,
      "count": 6876,
      "type": "SCALAR"
    },
    {
      "bufferView": 2,
      "byteOffset": 278064,
      "componentType": 5126,
      "count": 1538,
      "max": [
        5.217872142791748,
        2.2060179710388184,
        1.0813930034637451
      ],
      "min": [
        -4.901370048522949,
        -2.2060179710388184,
        -1.6050310134887695
      ],
      "type": "VEC3"
    },
    {
      "bufferView": 2,
      "byteOffset": 296520,
      "componentType": 5126,
      "count": 1538,
      "type": "VEC3"
    },
    {
      "bufferView": 1,
      "byteOffset": 92688,
      "componentType": 5126,
      "count": 1538,
      "type": "VEC2"
    },
    {
      "bufferView": 0,
      "byteOffset": 73788,
      "componentType": 5125,
      "count": 2712,
      "type": "SCALAR"
    },
    {
      "bufferView": 2,
      "byteOffset": 314976,
      "componentType": 5126,
      "count": 4357,
      "max": [
        5.986888885498047,
        2.144355058670044,
        0.4649049937725067
      ],
      "min": [
        -3.8220601081848145,
        -2.144355058670044,
        -1.332916021347046
      ],
      "type": "VEC3"
    },
    {
      "bufferView": 2,
      "byteOffset": 367260,
      "componentType": 5126,
      "count": 4357,
      "type": "VEC3"
    },
    {
      "bufferView": 1,
      "byteOffset": 104992,
      "componentType": 5126,
      "count": 4357,
      "type": "VEC2"
    },
    {
      "bufferView": 0,
      "byteOffset": 84636,
      "componentType": 5125,
      "count": 8058,
      "type": "SCALAR"
    }
  ],
  "asset": {
    "generator": "fab-model-conversion",
    "version": "2.0"
  },
  "bufferViews": [
    {
      "buffer": 0,
      "byteLength": 116868,
      "target": 34963
    },
    {
      "buffer": 0,
      "byteLength": 139848,
      "byteOffset": 116868,
      "byteStride": 8,
      "target": 34962
    },
    {
      "buffer": 0,
      "byteLength": 419544,
      "byteOffset": 256716,
      "byteStride": 12,
      "target": 34962
    }
  ],
  "buffers": [
    {
      "byteLength": 676260,
      "uri": "scene.bin"
    }
  ],
  "materials": [
    {
      "doubleSided": true,
      "name": "DrivWheel",
      "pbrMetallicRoughness": {
        "baseColorFactor": [
          0.04825934533322086,
          0.030704912105920322,
          0.020788983964961795,
          1.0
        ],
        "metallicFactor": 0.0,
        "roughnessFactor": 0.9089419857
      }
    },
    {
      "doubleSided": true,
      "name": "aluminium",
      "pbrMetallicRoughness": {
        "baseColorFactor": [
          0.592579,
          0.557543,
          0.557543,
          1.0
        ],
        "metallicFactor": 0.0,
        "roughnessFactor": 0.7891897249
      }
    },
    {
      "doubleSided": true,
      "name": "backOrangeLight",
      "pbrMetallicRoughness": {
        "baseColorFactor": [
          1.0,
          0.162098,
          0.039573,
          1.0
        ],
        "metallicFactor": 0.0,
        "roughnessFactor": 0.8232940578
      }
    },
    {
      "doubleSided": true,
      "name": "backRedLight",
      "pbrMetallicRoughness": {
        "baseColorFactor": [
          0.35884,
          0.006456,
          0.003883,
          1.0
        ],
        "metallicFactor": 0.0,
        "roughnessFactor": 0.8362638915
      }
    },
    {
      "doubleSided": true,
      "name": "backWhiteLight",
      "pbrMetallicRoughness": {
        "baseColorFactor": [
          0.673847,
          0.673847,
          0.673847,
          1.0
        ],
        "metallicFactor": 0.0,
        "roughnessFactor": 0.8403281566
      }
    },
    {
      "doubleSided": true,
      "name": "blackPlastic",
      "pbrMetallicRoughness": {
        "baseColorFactor": [
          0.029087,
          0.034792,
          0.037515,
          1.0
        ],
        "metallicFactor": 0.0,
        "roughnessFactor": 0.8395659782
      }
    },
    {
      "doubleSided": true,
      "name": "bord",
      "pbrMetallicRoughness": {
        "baseColorFactor": [
          0.538211,
          0.538211,
          0.538211,
          1.0
        ],
        "metallicFactor": 0.0,
        "roughnessFactor": 0.791220237
      }
    },
    {
      "doubleSided": true,
      "name": "bottomCar",
      "pbrMetallicRoughness": {
        "baseColorFactor": [
          0.021979,
          0.020665,
          0.019859,
          1.0
        ],
        "metallicFactor": 0.0
      }
    },
    {
      "doubleSided": true,
      "name": "frontLight",
      "pbrMetallicRoughness": {
        "baseColorFactor": [
          1.0,
          0.767022,
          0.312145,
          1.0
        ],
        "metallicFactor": 0.0,
        "roughnessFactor": 0.8328149238
      }
    },
    {
      "doubleSided": true,
      "name": "glass",
      "pbrMetallicRoughness": {
        "baseColorFactor": [
          0.5938933945615521,
          0.6755564788846355,
          0.7158558931551351,
          1.0
        ],
        "metallicFactor": 0.0,
        "roughnessFactor": 0.8235779237
      }
    },
    {
      "doubleSided": true,
      "name": "metal",
      "pbrMetallicRoughness": {
        "baseColorFactor": [
          0.02680799999999999,
          0.07532999999999995,
          0.27383099999999994,
          1.0
        ],
        "metallicFactor": 0.0,
        "roughnessFactor": 0.607
      }
    },
    {
      "doubleSided": true,
      "name": "mirror",
      "pbrMetallicRoughness": {
        "baseColorFactor": [
          0.8,
          0.8,
          0.8,
          1.0
        ],
        "metallicFactor": 0.0,
        "roughnessFactor": 0.7880318376
      }
    },
    {
      "doubleSided": true,
      "name": "wheelBlack",
      "pbrMetallicRoughness": {
        "baseColorFactor": [
          0.045811,
          0.035095,
          0.044229,
          1.0
        ],
        "metallicFactor": 0.0,
        "roughnessFactor": 0.92877951
      }
    },
    {
      "doubleSided": true,
      "name": "wheelMetal",
      "pbrMetallicRoughness": {
        "baseColorFactor": [
          0.4987199530935721,
          0.48892229278649585,
          0.48892229278649585,
          1.0
        ],
        "metallicFactor": 0.0,
        "roughnessFactor": 0.8015811517
      }
    }
  ],
  "meshes": [
    {
      "name": "Object_0",
      "primitives": [
        {
          "attributes": {
            "NORMAL": 1,
            "POSITION": 0,
            "TEXCOORD_0": 2
          },
          "indices": 3,
          "material": 0,
          "mode": 4
        }
      ]
    },
    {
      "name": "Object_1",
      "primitives": [
        {
          "attributes": {
            "NORMAL": 5,
            "POSITION": 4,
            "TEXCOORD_0": 6
          },
          "indices": 7,
          "material": 2,
          "mode": 4
        }
      ]
    },
    {
      "name": "Object_2",
      "primitives": [
        {
          "attributes": {
            "NORMAL": 9,
            "POSITION": 8,
            "TEXCOORD_0": 10
          },
          "indices": 11,
          "material": 3,
          "mode": 4
        }
      ]
    },
    {
      "name": "Object_3",
      "primitives": [
        {
          "attributes": {
            "NORMAL": 13,
            "POSITION": 12,
            "TEXCOORD_0": 14
          },
          "indices": 15,
          "material": 4,
          "mode": 4
        }
      ]
    },
    {
      "name": "Object_4",
      "primitives": [
        {
          "attributes": {
            "NORMAL": 17,
            "POSITION": 16,
            "TEXCOORD_0": 18
          },
          "indices": 19,
          "material": 5,
          "mode": 4
        }
      ]
    },
    {
      "name": "Object_5",
      "primitives": [
        {
          "attributes": {
            "NORMAL": 21,
            "POSITION": 20,
            "TEXCOORD_0": 22
          },
          "indices": 23,
          "material": 6,
          "mode": 4
        }
      ]
    },
    {
      "name": "Object_6",
      "primitives": [
        {
          "attributes": {
            "NORMAL": 25,
            "POSITION": 24,
            "TEXCOORD_0": 26
          },
          "indices": 27,
          "material": 7,
          "mode": 4
        }
      ]
    },
    {
      "name": "Object_7",
      "primitives": [
        {
          "attributes": {
            "NORMAL": 29,
            "POSITION": 28,
            "TEXCOORD_0": 30
          },
          "indices": 31,
          "material": 8,
          "mode": 4
        }
      ]
    },
    {
      "name": "Object_8",
      "primitives": [
        {
          "attributes": {
            "NORMAL": 33,
            "POSITION": 32,
            "TEXCOORD_0": 34
          },
          "indices": 35,
          "material": 9,
          "mode": 4
        }
      ]
    },
    {
      "name": "Object_9",
      "primitives": [
        {
          "attributes": {
            "NORMAL": 37,
            "POSITION": 36,
            "TEXCOORD_0": 38
          },
          "indices": 39,
          "material": 10,
          "mode": 4
        }
      ]
    },
    {
      "name": "Object_10",
      "primitives": [
        {
          "attributes": {
            "NORMAL": 41,
            "POSITION": 40,
            "TEXCOORD_0": 42
          },
          "indices": 43,
          "material": 11,
          "mode": 4
        }
      ]
    },
    {
      "name": "Object_11",
      "primitives": [
        {
          "attributes": {
            "NORMAL": 45,
            "POSITION": 44,
            "TEXCOORD_0": 46
          },
          "indices": 47,
          "material": 1,
          "mode": 4
        }
      ]
    },
    {
      "name": "Object_12",
      "primitives": [
        {
          "attributes": {
            "NORMAL": 49,
            "POSITION": 48,
            "TEXCOORD_0": 50
          },
          "indices": 51,
          "material": 12,
          "mode": 4
        }
      ]
    },
    {
      "name": "Object_13",
      "primitives": [
        {
          "attributes": {
            "NORMAL": 53,
            "POSITION": 52,
            "TEXCOORD_0": 54
          },
          "indices": 55,
          "material": 13,
          "mode": 4
        }
      ]
    }
  ],
  "nodes": [
    {
      "children": [
        1
      ],
      "matrix": [
        1.0,
        0.0,
        0.0,
        0.0,
        0.0,
        2.220446049250313e-16,
        -1.0,
        0.0,
        0.0,
        1.0,
        2.220446049250313e-16,
        0.0,
        0.0,
        0.0,
        0.0,
        1.0
      ],
      "name": "Sketchfab_model"
    },
    {
      "children": [
        2,
        3,
        4,
        5,
        6,
        7,
        8,
        9,
        10,
        11,
        12,
        13,
        14,
        15
      ],
      "name": "504LowPolyRenderV2.obj.cleaner.materialmerger.gles"
    },
    {
      "mesh": 0,
      "name": "Object_2"
    },
    {
      "mesh": 1,
      "name": "Object_3"
    },
    {
      "mesh": 2,
      "name": "Object_4"
    },
    {
      "mesh": 3,
      "name": "Object_5"
    },
    {
      "mesh": 4,
      "name": "Object_6"
    },
    {
      "mesh": 5,
      "name": "Object_7"
    },
    {
      "mesh": 6,
      "name": "Object_8"
    },
    {
      "mesh": 7,
      "name": "Object_9"
    },
    {
      "mesh": 8,
      "name": "Object_10"
    },
    {
      "mesh": 9,
      "name": "Object_11"
    },
    {
      "mesh": 10,
      "name": "Object_12"
    },
    {
      "mesh": 11,
      "name": "Object_13"
    },
    {
      "mesh": 12,
      "name": "Object_14"
    },
    {
      "mesh": 13,
      "name": "Object_15"
    }
  ],
  "scene": 0,
  "scenes": [
    {
      "name": "Sketchfab_Scene",
      "nodes": [
        0
      ]
    }
  ]
}
