<svg width="24" height="24" viewBox="0 0 24 24" fill="none" xmlns="http://www.w3.org/2000/svg">
<path fill-rule="evenodd" clip-rule="evenodd" d="M11.25 20.75C11.25 21.3023 11.6977 21.75 12.25 21.75C12.8023 21.75 13.25 21.3023 13.25 20.75V13H20.75C21.3023 13 21.75 12.5523 21.75 12C21.75 11.4477 21.3023 11 20.75 11H13.25V3.25C13.25 2.69772 12.8023 2.25 12.25 2.25C11.6977 2.25 11.25 2.69772 11.25 3.25V11H3.25C2.69772 11 2.25 11.4477 2.25 12C2.25 12.5523 2.69772 13 3.25 13H11.25V20.75Z" fill="white"/>
</svg>
