<svg width="24" height="24" viewBox="0 0 24 24" fill="none" xmlns="http://www.w3.org/2000/svg">
<path fill-rule="evenodd" clip-rule="evenodd" d="M6.00252 21.0712C6.04187 21.6221 6.52035 22.0368 7.07123 21.9974C7.62211 21.9581 8.03679 21.4796 7.99744 20.9287L6.99744 6.92873C6.95809 6.37785 6.47962 5.96317 5.92873 6.00252C5.37785 6.04187 4.96317 6.52035 5.00252 7.07123L6.00252 21.0712ZM16.0025 20.9287C15.9632 21.4796 16.3779 21.9581 16.9287 21.9974C17.4796 22.0368 17.9581 21.6221 17.9974 21.0712L18.9974 7.07123C19.0368 6.52035 18.6221 6.04187 18.0712 6.00252C17.5203 5.96317 17.0419 6.37785 17.0025 6.92873L16.0025 20.9287Z" fill="black"/>
<path d="M12 18V10" stroke="black" stroke-width="1.5" stroke-linecap="round"/>
<path d="M14.5 17.9945L14.9187 10.0055" stroke="black" stroke-width="1.5" stroke-linecap="round"/>
<path d="M9.5 17.9945L9.08131 10.0055" stroke="black" stroke-width="1.5" stroke-linecap="round"/>
<path fill-rule="evenodd" clip-rule="evenodd" d="M20 8C20.5523 8 21 7.55228 21 7C21 6.44772 20.5523 6 20 6H4C3.44772 6 3 6.44772 3 7C3 7.55229 3.44772 8 4 8L20 8ZM7 20C6.44772 20 6 20.4477 6 21C6 21.5523 6.44772 22 7 22H17C17.5523 22 18 21.5523 18 21C18 20.4477 17.5523 20 17 20H7Z" fill="black"/>
<path fill-rule="evenodd" clip-rule="evenodd" d="M9.04893 4.53948C9.00342 4.81254 9.00002 5.2112 9.00002 6.00004C9.00002 6.55233 8.55231 7.00004 8.00002 7.00004C7.44774 7.00004 7.00002 6.55233 7.00002 6.00004L7.00001 5.91667C6.99988 5.2418 6.99978 4.66883 7.07615 4.21065C7.1702 3.64642 7.38425 3.20168 7.79284 2.79301C8.2191 2.36667 8.69895 2.1645 9.25085 2.07533C9.7181 1.99983 10.2882 1.99991 10.9267 2.00001L10.9267 2.00001L11 2.00001L11.0052 2.00003L12.9883 2.00015C12.9923 2.0001 12.9962 2.00008 13.0001 2.00008L13.0835 2.00007C13.7584 1.99994 14.3313 1.99984 14.7895 2.07621C15.3537 2.17026 15.7985 2.38431 16.2072 2.7929C16.6335 3.21916 16.8357 3.69901 16.9248 4.25091C17.0003 4.71816 17.0003 5.28828 17.0002 5.92671V5.92672L17.0002 6.00003C17.0002 6.55231 16.5525 7.00004 16.0002 7.00005C15.4479 7.00006 15.0002 6.55236 15.0002 6.00007C15.0001 5.26253 14.9971 4.85845 14.9505 4.56993C14.9146 4.34826 14.8668 4.28095 14.7931 4.20726C14.7017 4.1159 14.6465 4.07995 14.4607 4.04899C14.189 4.0037 13.793 4.00012 13.0119 4.00008C13.008 4.00013 13.004 4.00015 13 4.00015L11 4.00003L10.9949 4.00001C10.2606 4.00004 9.85772 4.00321 9.56988 4.04972C9.3482 4.08554 9.28089 4.13337 9.2072 4.20708C9.11584 4.29846 9.07989 4.35372 9.04893 4.53948Z" fill="black"/>
</svg>
