<svg width="24" height="24" viewBox="0 0 24 24" fill="none" xmlns="http://www.w3.org/2000/svg">
<path fill-rule="evenodd" clip-rule="evenodd" d="M12 17C11.4477 17 11 16.5523 11 16V3C11 2.44771 11.4477 2 12 2C12.5523 2 13 2.44771 13 3V16C13 16.5523 12.5523 17 12 17Z" fill="black"/>
<path fill-rule="evenodd" clip-rule="evenodd" d="M5.29289 9.70711C4.90237 9.31658 4.90237 8.68342 5.29289 8.29289L11.2929 2.29289C11.6834 1.90237 12.3166 1.90237 12.7071 2.29289C13.0976 2.68342 13.0976 3.31658 12.7071 3.70711L6.70711 9.70711C6.31658 10.0976 5.68342 10.0976 5.29289 9.70711Z" fill="black"/>
<path fill-rule="evenodd" clip-rule="evenodd" d="M18.7071 9.70711C18.3166 10.0976 17.6834 10.0976 17.2929 9.70711L11.2929 3.70711C10.9024 3.31658 10.9024 2.68342 11.2929 2.29289C11.6834 1.90237 12.3166 1.90237 12.7071 2.29289L18.7071 8.29289C19.0976 8.68342 19.0976 9.31658 18.7071 9.70711Z" fill="black"/>
<path fill-rule="evenodd" clip-rule="evenodd" d="M3.00004 17.9921C3.00002 17.9948 3.00001 17.9974 3.00001 18.0001L3.00001 18.0734L3.00001 18.0734C2.99991 18.7118 2.99983 19.2819 3.07533 19.7492C3.1645 20.3011 3.36667 20.7809 3.79301 21.2072C4.20168 21.6158 4.64642 21.8298 5.21065 21.9239C5.66883 22.0002 6.2418 22.0001 6.91667 22L7.00004 22H16.9922L17.0001 22L17.0734 22C17.7118 22.0001 18.282 22.0002 18.7492 21.9247C19.3011 21.8355 19.781 21.6334 20.2072 21.207C20.6158 20.7984 20.8299 20.3536 20.9239 19.7894C21.0003 19.3312 21.0002 18.7582 21.0001 18.0834L21 18V17C21 16.4477 20.5523 16 20 16C19.4478 16 19 16.4477 19 17V18C19 18.7888 18.9966 19.1875 18.9511 19.4606C18.9202 19.6463 18.8842 19.7016 18.7929 19.793C18.7192 19.8667 18.6519 19.9145 18.4302 19.9503C18.1427 19.9968 17.7405 20 17.0079 20L17 20H7.00004C6.2112 20 5.81254 19.9966 5.53948 19.9511C5.35372 19.9201 5.29846 19.8842 5.20708 19.7928C5.13337 19.7191 5.08554 19.6518 5.04972 19.4301C5.00327 19.1427 5.00005 18.7404 5.00001 18.0079C5.00003 18.0053 5.00004 18.0026 5.00004 18V17C5.00004 16.4477 4.55233 16 4.00004 16C3.44776 16 3.00004 16.4477 3.00004 17L3.00004 17.9921Z" fill="black"/>
</svg>
