<svg width="24" height="24" viewBox="0 0 24 24" fill="none" xmlns="http://www.w3.org/2000/svg">
<path d="M3 10C7.5 10 14 10 14 12C14 14 7.99999 14 3 14" stroke="#368BBC" stroke-width="2" stroke-linecap="round"/>
<path d="M3.5 6.5C12 6.5 17.5 8 17.5 12C17.5 16.0001 12 17.5 3.5 17.5" stroke="#368BBC" stroke-linecap="round" stroke-dasharray="2 2"/>
<path d="M3 3C14 3 21 6.5 21 12C21 17.5 14 21 3 21" stroke="#368BBC" stroke-width="2" stroke-linecap="round"/>
<mask id="path-4-inside-1_261_155" fill="white">
<path fill-rule="evenodd" clip-rule="evenodd" d="M2 10.5V9.5C2 9.22386 2.22386 9 2.5 9H3.5V11H2.5C2.22386 11 2 10.7761 2 10.5Z"/>
</mask>
<path fill-rule="evenodd" clip-rule="evenodd" d="M2 10.5V9.5C2 9.22386 2.22386 9 2.5 9H3.5V11H2.5C2.22386 11 2 10.7761 2 10.5Z" fill="black"/>
<path d="M3.5 9H4.5V8H3.5V9ZM3.5 11V12H4.5V11H3.5ZM3 10.5V9.5H1V10.5H3ZM3 9.5C3 9.77614 2.77614 10 2.5 10V8C1.67157 8 1 8.67157 1 9.5H3ZM2.5 10H3.5V8H2.5V10ZM2.5 9V11H4.5V9H2.5ZM3.5 10H2.5V12H3.5V10ZM2.5 10C2.77614 10 3 10.2239 3 10.5H1C1 11.3284 1.67157 12 2.5 12V10Z" fill="#368BBC" mask="url(#path-4-inside-1_261_155)"/>
<mask id="path-6-inside-2_261_155" fill="white">
<path fill-rule="evenodd" clip-rule="evenodd" d="M2 3.5V2.5C2 2.22386 2.22386 2 2.5 2H3.5V4H2.5C2.22386 4 2 3.77614 2 3.5Z"/>
</mask>
<path fill-rule="evenodd" clip-rule="evenodd" d="M2 3.5V2.5C2 2.22386 2.22386 2 2.5 2H3.5V4H2.5C2.22386 4 2 3.77614 2 3.5Z" fill="black"/>
<path d="M3.5 2H4.5V1H3.5V2ZM3.5 4V5H4.5V4H3.5ZM3 3.5V2.5H1V3.5H3ZM3 2.5C3 2.77614 2.77614 3 2.5 3V1C1.67157 1 1 1.67157 1 2.5H3ZM2.5 3H3.5V1H2.5V3ZM2.5 2V4H4.5V2H2.5ZM3.5 3H2.5V5H3.5V3ZM2.5 3C2.77614 3 3 3.22386 3 3.5H1C1 4.32843 1.67157 5 2.5 5V3Z" fill="#368BBC" mask="url(#path-6-inside-2_261_155)"/>
<mask id="path-8-inside-3_261_155" fill="white">
<path fill-rule="evenodd" clip-rule="evenodd" d="M2 14.5V13.5C2 13.2239 2.22386 13 2.5 13H3.5V15H2.5C2.22386 15 2 14.7761 2 14.5Z"/>
</mask>
<path fill-rule="evenodd" clip-rule="evenodd" d="M2 14.5V13.5C2 13.2239 2.22386 13 2.5 13H3.5V15H2.5C2.22386 15 2 14.7761 2 14.5Z" fill="black"/>
<path d="M3.5 13H4.5V12H3.5V13ZM3.5 15V16H4.5V15H3.5ZM3 14.5V13.5H1V14.5H3ZM3 13.5C3 13.7761 2.77614 14 2.5 14V12C1.67157 12 1 12.6716 1 13.5H3ZM2.5 14H3.5V12H2.5V14ZM2.5 13V15H4.5V13H2.5ZM3.5 14H2.5V16H3.5V14ZM2.5 14C2.77614 14 3 14.2239 3 14.5H1C1 15.3284 1.67157 16 2.5 16V14Z" fill="#368BBC" mask="url(#path-8-inside-3_261_155)"/>
<mask id="path-10-inside-4_261_155" fill="white">
<path fill-rule="evenodd" clip-rule="evenodd" d="M2 21.5V20.5C2 20.2239 2.22386 20 2.5 20H3.5V22H2.5C2.22386 22 2 21.7761 2 21.5Z"/>
</mask>
<path fill-rule="evenodd" clip-rule="evenodd" d="M2 21.5V20.5C2 20.2239 2.22386 20 2.5 20H3.5V22H2.5C2.22386 22 2 21.7761 2 21.5Z" fill="black"/>
<path d="M3.5 20H4.5V19H3.5V20ZM3.5 22V23H4.5V22H3.5ZM3 21.5V20.5H1V21.5H3ZM3 20.5C3 20.7761 2.77614 21 2.5 21V19C1.67157 19 1 19.6716 1 20.5H3ZM2.5 21H3.5V19H2.5V21ZM2.5 20V22H4.5V20H2.5ZM3.5 21H2.5V23H3.5V21ZM2.5 21C2.77614 21 3 21.2239 3 21.5H1C1 22.3284 1.67157 23 2.5 23V21Z" fill="#368BBC" mask="url(#path-10-inside-4_261_155)"/>
</svg>
