{
  "accessors": [
    {
      "bufferView": 2,
      "componentType": 5126,
      "count": 3071,
      "max": [
        104.99999237060547,
        95.00000762939453,
        242.9891815185547
      ],
      "min": [
        -104.99999237060547,
        -40.000038146972656,
        -237.98916625976563
      ],
      "type": "VEC3"
    },
    {
      "bufferView": 2,
      "byteOffset": 36852,
      "componentType": 5126,
      "count": 3071,
      "max": [
        1.0,
        1.0,
        1.0
      ],
      "min": [
        -1.0,
        -1.0,
        -1.0
      ],
      "type": "VEC3"
    },
    {
      "bufferView": 1,
      "componentType": 5126,
      "count": 3071,
      "max": [
        0.767061173915863,
        0.528963029384613
      ],
      "min": [
        0.016680240631103516,
        0.513034462928772
      ],
      "type": "VEC2"
    },
    {
      "bufferView": 0,
      "componentType": 5125,
      "count": 8310,
      "type": "SCALAR"
    },
    {
      "bufferView": 2,
      "byteOffset": 73704,
      "componentType": 5126,
      "count": 562,
      "max": [
        3.154987096786499,
        32.682151794433594,
        32.682167053222656
      ],
      "min": [
        -17.626720428466797,
        -32.68213653564453,
        -32.68210983276367
      ],
      "type": "VEC3"
    },
    {
      "bufferView": 2,
      "byteOffset": 80448,
      "componentType": 5126,
      "count": 562,
      "max": [
        1.0,
        1.0,
        1.0
      ],
      "min": [
        -1.0,
        -1.0,
        -1.0
      ],
      "type": "VEC3"
    },
    {
      "bufferView": 1,
      "byteOffset": 24568,
      "componentType": 5126,
      "count": 562,
      "max": [
        0.10899081826210022,
        0.5238303542137146
      ],
      "min": [
        0.023565910756587982,
        0.5167620182037354
      ],
      "type": "VEC2"
    },
    {
      "bufferView": 0,
      "byteOffset": 33240,
      "componentType": 5125,
      "count": 1248,
      "type": "SCALAR"
    },
    {
      "bufferView": 2,
      "byteOffset": 87192,
      "componentType": 5126,
      "count": 562,
      "max": [
        17.62676239013672,
        32.68215560913086,
        32.682098388671875
      ],
      "min": [
        -3.1549453735351563,
        -32.682132720947266,
        -32.68218231201172
      ],
      "type": "VEC3"
    },
    {
      "bufferView": 2,
      "byteOffset": 93936,
      "componentType": 5126,
      "count": 562,
      "max": [
        1.0,
        1.0,
        1.0
      ],
      "min": [
        -1.0,
        -1.0,
        -1.0
      ],
      "type": "VEC3"
    },
    {
      "bufferView": 1,
      "byteOffset": 29064,
      "componentType": 5126,
      "count": 562,
      "max": [
        0.10899081826210022,
        0.5238303542137146
      ],
      "min": [
        0.023565910756587982,
        0.5167620182037354
      ],
      "type": "VEC2"
    },
    {
      "bufferView": 0,
      "byteOffset": 38232,
      "componentType": 5125,
      "count": 1248,
      "type": "SCALAR"
    },
    {
      "bufferView": 2,
      "byteOffset": 100680,
      "componentType": 5126,
      "count": 562,
      "max": [
        17.6267032623291,
        32.682151794433594,
        32.682125091552734
      ],
      "min": [
        -3.1550049781799316,
        -32.6821403503418,
        -32.68214416503906
      ],
      "type": "VEC3"
    },
    {
      "bufferView": 2,
      "byteOffset": 107424,
      "componentType": 5126,
      "count": 562,
      "max": [
        1.0,
        1.0,
        1.0
      ],
      "min": [
        -1.0,
        -1.0,
        -1.0
      ],
      "type": "VEC3"
    },
    {
      "bufferView": 1,
      "byteOffset": 33560,
      "componentType": 5126,
      "count": 562,
      "max": [
        0.10899081826210022,
        0.5238303542137146
      ],
      "min": [
        0.023565910756587982,
        0.5167620182037354
      ],
      "type": "VEC2"
    },
    {
      "bufferView": 0,
      "byteOffset": 43224,
      "componentType": 5125,
      "count": 1248,
      "type": "SCALAR"
    },
    {
      "bufferView": 2,
      "byteOffset": 114168,
      "componentType": 5126,
      "count": 562,
      "max": [
        3.1549155712127686,
        32.682151794433594,
        32.68216323852539
      ],
      "min": [
        -17.626792907714844,
        -32.6821403503418,
        -32.68210983276367
      ],
      "type": "VEC3"
    },
    {
      "bufferView": 2,
      "byteOffset": 120912,
      "componentType": 5126,
      "count": 562,
      "max": [
        1.0,
        1.0,
        1.0
      ],
      "min": [
        -1.0,
        -1.0,
        -1.0
      ],
      "type": "VEC3"
    },
    {
      "bufferView": 1,
      "byteOffset": 38056,
      "componentType": 5126,
      "count": 562,
      "max": [
        0.10899081826210022,
        0.5238303542137146
      ],
      "min": [
        0.023565910756587982,
        0.5167620182037354
      ],
      "type": "VEC2"
    },
    {
      "bufferView": 0,
      "byteOffset": 48216,
      "componentType": 5125,
      "count": 1248,
      "type": "SCALAR"
    }
  ],
  "asset": {
    "extras": {
      "author": "elinaz_ (https://sketchfab.com/elinaz_)",
      "license": "CC-BY-4.0 (http://creativecommons.org/licenses/by/4.0/)",
      "source": "https://sketchfab.com/3d-models/stylised-low-poly-car-d15c4fde6f454f91b70c7737b04fc804",
      "title": "Stylised low poly Car"
    },
    "generator": "Sketchfab-15.22.0",
    "version": "2.0"
  },
  "bufferViews": [
    {
      "buffer": 0,
      "byteLength": 53208,
      "name": "floatBufferViews",
      "target": 34963
    },
    {
      "buffer": 0,
      "byteLength": 42552,
      "byteOffset": 53208,
      "byteStride": 8,
      "name": "floatBufferViews",
      "target": 34962
    },
    {
      "buffer": 0,
      "byteLength": 127656,
      "byteOffset": 95760,
      "byteStride": 12,
      "name": "floatBufferViews",
      "target": 34962
    }
  ],
  "buffers": [
    {
      "byteLength": 223416,
      "uri": "scene.bin"
    }
  ],
  "images": [
    {
      "uri": "textures/MT_Car_baseColor.png"
    }
  ],
  "materials": [
    {
      "doubleSided": true,
      "name": "MT_Car",
      "pbrMetallicRoughness": {
        "baseColorTexture": {
          "index": 0
        },
        "metallicFactor": 0.0,
        "roughnessFactor": 0.8040408205773457
      }
    }
  ],
  "meshes": [
    {
      "name": "MS_Car_Body_MT_Car_0",
      "primitives": [
        {
          "attributes": {
            "NORMAL": 1,
            "POSITION": 0,
            "TEXCOORD_0": 2
          },
          "indices": 3,
          "material": 0,
          "mode": 4
        }
      ]
    },
    {
      "name": "MS_Car_Wheel_FL_MT_Car_0",
      "primitives": [
        {
          "attributes": {
            "NORMAL": 5,
            "POSITION": 4,
            "TEXCOORD_0": 6
          },
          "indices": 7,
          "material": 0,
          "mode": 4
        }
      ]
    },
    {
      "name": "MS_Car_Wheel_FR_MT_Car_0",
      "primitives": [
        {
          "attributes": {
            "NORMAL": 9,
            "POSITION": 8,
            "TEXCOORD_0": 10
          },
          "indices": 11,
          "material": 0,
          "mode": 4
        }
      ]
    },
    {
      "name": "MS_Car_Wheel_BR_MT_Car_0",
      "primitives": [
        {
          "attributes": {
            "NORMAL": 13,
            "POSITION": 12,
            "TEXCOORD_0": 14
          },
          "indices": 15,
          "material": 0,
          "mode": 4
        }
      ]
    },
    {
      "name": "MS_Car_Wheel_BL_MT_Car_0",
      "primitives": [
        {
          "attributes": {
            "NORMAL": 17,
            "POSITION": 16,
            "TEXCOORD_0": 18
          },
          "indices": 19,
          "material": 0,
          "mode": 4
        }
      ]
    }
  ],
  "nodes": [
    {
      "children": [
        1
      ],
      "matrix": [
        1.0,
        0.0,
        0.0,
        0.0,
        0.0,
        2.220446049250313e-16,
        -1.0,
        0.0,
        0.0,
        1.0,
        2.220446049250313e-16,
        0.0,
        0.0,
        0.0,
        0.0,
        1.0
      ],
      "name": "Sketchfab_model"
    },
    {
      "children": [
        2
      ],
      "matrix": [
        0.009999999776482582,
        0.0,
        0.0,
        0.0,
        0.0,
        0.0,
        0.009999999776482582,
        0.0,
        0.0,
        -0.009999999776482582,
        0.0,
        0.0,
        0.0,
        0.0,
        0.0,
        1.0
      ],
      "name": "9b4404eb0d264db9b5ed5cfe1ad06578.fbx"
    },
    {
      "children": [
        3,
        5,
        7,
        9,
        11
      ],
      "name": "RootNode"
    },
    {
      "children": [
        4
      ],
      "matrix": [
        1.0,
        0.0,
        0.0,
        0.0,
        0.0,
        1.0,
        0.0,
        0.0,
        0.0,
        0.0,
        1.0,
        0.0,
        0.0,
        70.0,
        0.0,
        1.0
      ],
      "name": "MS_Car_Body"
    },
    {
      "mesh": 0,
      "name": "MS_Car_Body_MT_Car_0"
    },
    {
      "children": [
        6
      ],
      "matrix": [
        1.0,
        0.0,
        0.0,
        0.0,
        0.0,
        1.0,
        0.0,
        0.0,
        0.0,
        0.0,
        1.0,
        0.0,
        90.22125244140625,
        36.99998474121094,
        168.99996948242188,
        1.0
      ],
      "name": "MS_Car_Wheel_FL"
    },
    {
      "mesh": 1,
      "name": "MS_Car_Wheel_FL_MT_Car_0"
    },
    {
      "children": [
        8
      ],
      "matrix": [
        1.0,
        0.0,
        0.0,
        0.0,
        0.0,
        1.0,
        0.0,
        0.0,
        0.0,
        0.0,
        1.0,
        0.0,
        -90.2212905883789,
        36.99998092651367,
        169.0000457763672,
        1.0
      ],
      "name": "MS_Car_Wheel_FR"
    },
    {
      "mesh": 2,
      "name": "MS_Car_Wheel_FR_MT_Car_0"
    },
    {
      "children": [
        10
      ],
      "matrix": [
        1.0,
        0.0,
        0.0,
        0.0,
        0.0,
        1.0,
        0.0,
        0.0,
        0.0,
        0.0,
        1.0,
        0.0,
        -90.22122955322266,
        36.9999885559082,
        -115.16889190673828,
        1.0
      ],
      "name": "MS_Car_Wheel_BR"
    },
    {
      "mesh": 3,
      "name": "MS_Car_Wheel_BR_MT_Car_0"
    },
    {
      "children": [
        12
      ],
      "matrix": [
        1.0,
        0.0,
        0.0,
        0.0,
        0.0,
        1.0,
        0.0,
        0.0,
        0.0,
        0.0,
        1.0,
        0.0,
        90.22132110595703,
        36.9999885559082,
        -115.16893005371094,
        1.0
      ],
      "name": "MS_Car_Wheel_BL"
    },
    {
      "mesh": 4,
      "name": "MS_Car_Wheel_BL_MT_Car_0"
    }
  ],
  "samplers": [
    {
      "magFilter": 9729,
      "minFilter": 9987,
      "wrapS": 10497,
      "wrapT": 10497
    }
  ],
  "scene": 0,
  "scenes": [
    {
      "name": "Sketchfab_Scene",
      "nodes": [
        0
      ]
    }
  ],
  "textures": [
    {
      "sampler": 0,
      "source": 0
    }
  ]
}
